#!OML:ASF H:\Terrain\Patient Classification 1\Walking\steve\steve.ASF
:FULLY-SPECIFIED
:DEGREES
46
root 7.50375 15.5476 -21.6702 9.04351 -10.5307 -5.4784
lowerback 0.596532 5.16682 5.31089
upperback -3.7556 7.07954 0.804555
thorax -3.68406 3.37335 -2.34986
lowerneck -11.5464 -1.7043 -2.74433
upperneck 14.8241 -2.5434 4.35942
head 6.50111 -1.02298 1.61814
rclavicle 2.18849e-014 3.03147e-015
rhumerus -20.6496 11.3698 -84.5265
rradius 69.8539
rwrist 1.87747
rhand 179.128 -68.2896
rfingers 7.12502
rthumb -155.245 -39.8715
lclavicle 2.18849e-014 3.03147e-015
lhumerus -64.445 19.4938 59.1676
lradius 7.69536
lwrist -25.6798
lhand -18.5283 -13.2702
lfingers 7.12502
lthumb 7.76042 16.5674
rfemur 9.90693 -0.262589 25.4628
rtibia 15.2595
rfoot 1.37031 25.5848
rtoes 17.5443
lfemur -38.7204 3.23411 -11.8114
ltibia 12.2206
lfoot -13.464 7.0206
ltoes -17.5322
47
root 7.5119 15.5232 -21.4072 9.03804 -10.3643 -5.73904
lowerback 0.765908 5.21147 5.41237
upperback -3.90832 7.16071 0.790704
thorax -3.92013 3.40026 -2.44706
lowerneck -9.48681 -1.49554 -4.20647
upperneck 12.8125 -2.33599 6.67017
head 5.54635 -0.871763 2.61057
rclavicle -8.51299e-015 -7.15625e-015
rhumerus -21.287 11.1704 -84.5082
rradius 70.6724
rwrist 1.5108
rhand 178.97 -68.2952
rfingers 7.12502
rthumb -155.397 -39.8563
lclavicle -8.51299e-015 -7.15625e-015
lhumerus -64.8455 19.0934 58.8369
lradius 7.38005
lwrist -25.4451
lhand -17.997 -13.0496
lfingers 7.12502
lthumb 8.27326 16.7684
rfemur 11.1405 0.940508 25.8675
rtibia 14.6556
rfoot 2.34656 23.9063
rtoes 16.3264
lfemur -39.5375 3.00861 -11.7188
ltibia 14.9248
lfoot -14.4855 5.75082
ltoes -16.0597
48
root 7.52113 15.4766 -21.1353 9.06386 -10.1719 -5.94728
lowerback 0.660382 5.1707 5.47363
upperback -3.90273 7.09847 0.738802
thorax -3.84592 3.369 -2.52057
lowerneck -11.7136 -1.82737 -2.57788
upperneck 14.8784 -2.81077 4.77005
head 6.56166 -1.10594 1.69729
rclavicle -1.02166e-013 -1.47846e-014
rhumerus -21.963 11.1741 -84.636
rradius 71.6199
rwrist 0.647424
rhand 178.393 -67.7876
rfingers 7.12502
rthumb -155.949 -39.2746
lclavicle -1.02166e-013 -1.47846e-014
lhumerus -65.0187 19.0126 58.3851
lradius 7.02342
lwrist -25.4775
lhand -17.9549 -12.1713
lfingers 7.12502
lthumb 8.31383 17.6451
rfemur 12.0865 1.66458 26.1576
rtibia 14.4795
rfoot 4.04086 22.3891
rtoes 17.6764
lfemur -40.3311 2.91299 -11.8996
ltibia 17.6237
lfoot -14.2504 4.87726
ltoes -18.1867
49
root 7.5346 15.4396 -20.8389 9.04892 -10.0169 -5.78481
lowerback 0.0907425 5.16659 5.21607
upperback -3.76806 7.03658 0.606104
thorax -3.40088 3.36129 -2.44891
lowerneck -9.55618 -1.61592 -4.11041
upperneck 12.4528 -2.58426 7.306
head 5.46792 -0.94663 2.77395
rclavicle 3.83515e-014 2.47984e-014
rhumerus -22.7346 10.9144 -84.6564
rradius 72.5636
rwrist 0.271585
rhand 178.38 -67.8428
rfingers 7.12502
rthumb -155.963 -39.3281
lclavicle 3.83515e-014 2.47984e-014
lhumerus -65.1272 18.9842 58.0686
lradius 6.85201
lwrist -25.393
lhand -18.1688 -11.2499
lfingers 7.12502
lthumb 8.10741 18.5745
rfemur 13.0019 2.08176 25.9042
rtibia 14.5782
rfoot 6.12609 21.0283
rtoes 19.0584
lfemur -40.8624 2.87059 -12.6097
ltibia 20.1949
lfoot -12.336 4.44069
ltoes -17.2789
50
root 7.53937 15.4152 -20.5689 9.06456 -9.92109 -5.40638
lowerback -0.087587 5.25454 4.52992
upperback -3.82575 7.12843 0.494734
thorax -3.41799 3.42608 -2.17778
lowerneck -11.3938 -2.08032 -3.11679
upperneck 14.3558 -3.21979 5.85289
head 6.38255 -1.2557 2.09622
rclavicle -1.25081e-013 -2.92213e-014
rhumerus -23.6952 10.302 -84.4257
rradius 73.2901
rwrist 0.370885
rhand 179.358 -68.9764
rfingers 7.12502
rthumb -155.024 -40.5888
lclavicle -1.25081e-013 -2.92213e-014
lhumerus -65.1826 18.7979 58.0469
lradius 6.64354
lwrist -25.3137
lhand -18.4597 -10.7915
lfingers 7.12502
lthumb 7.82663 19.0436
rfemur 13.5292 3.27559 25.6721
rtibia 15.3208
rfoot 8.58023 18.5599
rtoes 23.5627
lfemur -41.4492 2.7541 -13.3356
ltibia 22.4837
lfoot -9.6744 4.78938
ltoes -14.211
51
root 7.55323 15.429 -20.2702 8.97386 -9.84279 -5.09448
lowerback -0.298403 5.29998 4.10659
upperback -3.90352 7.16775 0.342842
thorax -3.40742 3.45633 -2.08691
lowerneck -11.5489 -2.23604 -3.11396
upperneck 14.5407 -3.46372 5.99891
head 6.4828 -1.35646 2.12012
rclavicle -5.10752e-014 4.77083e-015
rhumerus -24.7938 9.81696 -84.4228
rradius 73.742
rwrist 0.184568
rhand 180.046 -69.1228
rfingers 7.12502
rthumb -154.366 -40.8284
lclavicle -5.10752e-014 4.77083e-015
lhumerus -65.1884 18.6706 57.8411
lradius 6.12852
lwrist -25.2076
lhand -18.9519 -10.7024
lfingers 7.12502
lthumb 7.35157 19.1499
rfemur 13.7458 3.93009 25.3051
rtibia 16.9951
rfoot 9.84965 17.0576
rtoes 23.5639
lfemur -41.6829 2.44834 -13.7785
ltibia 24.4021
lfoot -7.61473 4.90241
ltoes -13.9153
52
root 7.56371 15.4546 -19.9839 8.93265 -9.69532 -5.11017
lowerback -0.316992 5.21733 3.93093
upperback -3.995 7.05397 0.262203
thorax -3.50915 3.40029 -2.07675
lowerneck -10.6358 -2.1137 -3.70392
upperneck 13.4913 -3.36851 7.34285
head 6.02085 -1.26876 2.65689
rclavicle 1.74985e-014 9.93923e-015
rhumerus -25.7464 9.5788 -84.7768
rradius 74.0144
rwrist -0.420961
rhand 179.699 -68.2522
rfingers 7.12502
rthumb -154.698 -39.9103
lclavicle 1.74985e-014 9.93923e-015
lhumerus -65.1212 18.8137 57.3715
lradius 5.62035
lwrist -24.853
lhand -19.3591 -10.2871
lfingers 7.12502
lthumb 6.95852 19.5785
rfemur 13.1881 4.47454 25.4195
rtibia 19.463
rfoot 9.44405 16.4774
rtoes 13.5494
lfemur -41.9022 1.97261 -13.607
ltibia 26.0313
lfoot -6.00183 4.29828
ltoes -10.0154
53
root 7.56953 15.4486 -19.7086 8.94461 -9.54932 -4.67486
lowerback -0.473445 5.17121 3.24117
upperback -4.05238 6.96945 0.0736138
thorax -3.54066 3.37636 -1.88211
lowerneck -10.3145 -2.14549 -4.16562
upperneck 12.9655 -3.46153 8.3448
head 5.83142 -1.27829 3.04384
rclavicle -5.92852e-014 -4.77083e-015
rhumerus -26.7713 9.10565 -85.0084
rradius 74.2663
rwrist -1.0126
rhand 179.284 -67.8796
rfingers 7.12502
rthumb -155.095 -39.4822
lclavicle -5.92852e-014 -4.77083e-015
lhumerus -64.7543 18.9782 57.1134
lradius 5.10288
lwrist -24.432
lhand -19.3174 -9.63544
lfingers 7.12502
lthumb 6.99878 20.2289
rfemur 12.0972 5.14585 25.1348
rtibia 22.4926
rfoot 10.9016 14.5086
rtoes 9.57595
lfemur -42.1613 1.44604 -13.922
ltibia 27.5627
lfoot -4.87364 3.86436
ltoes -0.298377
54
root 7.5749 15.4314 -19.4268 8.78306 -9.43026 -3.69982
lowerback -0.708842 5.15381 2.09865
upperback -4.03627 6.90951 -0.28572
thorax -3.48027 3.37895 -1.60308
lowerneck -11.2448 -2.40752 -3.90092
upperneck 13.8153 -3.88372 8.22543
head 6.28132 -1.44183 2.92614
rclavicle -1.54524e-015 6.36111e-015
rhumerus -27.8921 8.23284 -85.2258
rradius 74.3449
rwrist -1.44579
rhand 179.236 -68.096
rfingers 7.12502
rthumb -155.141 -39.6922
lclavicle -1.54524e-015 6.36111e-015
lhumerus -64.1827 19.0866 56.9702
lradius 4.51972
lwrist -24.2821
lhand -19.2949 -9.17676
lfingers 7.12502
lthumb 7.02046 20.6868
rfemur 10.9156 5.56768 24.1627
rtibia 26.1065
rfoot 13.5411 11.2836
rtoes 12.1684
lfemur -42.0923 1.09377 -15.1053
ltibia 29.0744
lfoot -4.28371 4.16659
ltoes 3.56294
55
root 7.57778 15.4332 -19.1525 8.45525 -9.40042 -2.70215
lowerback -0.69318 5.05999 0.85684
upperback -3.99385 6.75628 -0.611984
thorax -3.55199 3.33555 -1.25829
lowerneck -13.3298 -2.67281 -2.65828
upperneck 15.7712 -4.33837 6.79718
head 7.2442 -1.62867 2.20986
rclavicle -2.48527e-014 1.59028e-015
rhumerus -28.9996 7.5081 -85.7063
rradius 74.088
rwrist -1.33793
rhand 179.201 -69.0075
rfingers 7.12502
rthumb -155.175 -40.599
lclavicle -2.48527e-014 1.59028e-015
lhumerus -63.8979 19.338 56.5984
lradius 4.3058
lwrist -24.2952
lhand -19.5383 -9.06274
lfingers 7.12502
lthumb 6.78551 20.8085
rfemur 9.72292 5.91002 23.1077
rtibia 29.8258
rfoot 16.1647 7.96403
rtoes 12.929
lfemur -41.8625 1.20469 -16.6285
ltibia 30.7834
lfoot -3.87667 4.35443
ltoes -0.839331
56
root 7.58207 15.4476 -18.8892 8.28295 -9.39548 -2.13832
lowerback -0.577635 5.01212 0.052521
upperback -4.03708 6.67513 -0.787412
thorax -3.73422 3.31581 -1.01312
lowerneck -11.7932 -2.48457 -3.51003
upperneck 14.1453 -4.08136 8.27214
head 6.48866 -1.49364 2.85701
rclavicle -1.3925e-014 -3.97569e-016
rhumerus -30.1986 6.68338 -85.9375
rradius 73.583
rwrist 0.454767
rhand 180.975 -70.2364
rfingers 7.12502
rthumb -153.476 -42.0731
lclavicle -1.3925e-014 -3.97569e-016
lhumerus -63.9387 19.5034 56.2697
lradius 4.75416
lwrist -24.2134
lhand -19.5889 -9.25292
lfingers 7.12502
lthumb 6.73669 20.6199
rfemur 8.2583 6.29131 22.4831
rtibia 33.4373
rfoot 18.7716 5.63168
rtoes 11.3045
lfemur -41.805 1.56388 -17.7603
ltibia 32.6648
lfoot -3.82848 3.40603
ltoes -4.70273
